<?xml version="1.0" encoding="iso-8859-1"?>
<!-- Generator: Adobe Illustrator 19.0.0, SVG Export Plug-In . SVG Version: 6.00 Build 0)  -->
<svg version="1.1" id="Layer_1" xmlns="http://www.w3.org/2000/svg" xmlns:xlink="http://www.w3.org/1999/xlink" x="0px" y="0px"
	 viewBox="0 0 504.272 504.272" style="enable-background:new 0 0 504.272 504.272;" xml:space="preserve">
<g transform="translate(1 1)">
	<g>
		<path d="M490.713,366.094c-4.863-4.863-10.587-8.193-16.63-9.996c11.676-15.375,10.462-36.745-3.657-50.864
			c-15.457-15.457-39.608-15.457-55.064,0l-13.525,13.525l-68.106-68.106l68.046-68.046l13.584,13.465
			c6.762,7.728,16.423,11.592,27.049,11.592c10.626,0,19.321-5.796,27.049-12.559c7.728-6.762,11.592-17.389,11.592-27.049
			c0-8.165-2.772-16.326-8.294-23.325c6.417-1.454,12.54-4.437,16.988-9.52l1.932-1.932c14.491-14.491,14.491-37.675,0-52.166
			l-69.555-69.555c-15.457-15.457-39.608-15.457-55.064,0c-5.029,5.029-8.41,10.98-10.167,17.251
			c-15.426-12.334-37.295-11.328-51.659,3.036c-15.457,15.457-15.457,39.608,0,55.064l14.069,13.946l-67.684,67.684l-69.012-69.012
			l13.465-13.584c7.728-6.762,11.592-16.423,11.592-27.049s-3.864-20.287-11.592-27.049c-6.762-7.728-16.423-11.592-27.049-11.592
			c-7.897,0-15.793,2.586-22.634,7.75c-1.743-6.329-5.14-12.339-10.211-17.41c-15.457-15.457-39.608-15.457-55.064,0L12.525,79.181
			c-15.457,15.457-15.457,39.608,0,55.064c4.914,4.914,10.61,8.259,16.589,10.048c-11.633,15.371-10.405,36.709,3.698,50.812
			c7.728,7.728,17.389,11.592,27.049,11.592c9.66,0,19.321-3.864,27.049-10.626l13.946-14.069l68.65,68.65l-69.072,69.072
			L86.909,306.2c-6.762-7.728-17.389-11.592-27.049-11.592c-9.66,0-19.321,3.864-27.049,11.592
			c-7.728,6.762-11.592,16.423-11.592,27.049c0,8.206,2.799,16.407,8.375,23.428c-6.559,1.688-12.797,5.145-18.035,10.383
			l-0.966,0.966c-14.491,14.491-14.491,38.642,0,53.132l71.487,71.487c6.762,6.762,16.423,10.626,25.117,10.626
			c9.66,0,18.355-3.864,25.117-10.626l2.898-1.932c5.238-5.238,8.695-11.477,10.383-18.035c7.022,5.576,15.223,8.375,23.428,8.375
			c9.66,0,20.287-3.864,27.049-10.626c15.457-15.457,15.457-39.608,0-55.064l-13.525-13.525l69.072-69.072l68.106,68.106
			L306.2,414.396c-7.728,6.762-11.592,16.423-11.592,27.049c0,9.66,4.83,19.321,11.592,27.049
			c6.762,7.728,16.423,11.592,27.049,11.592c8.102,0,16.874-2.729,23.486-8.165c1.707,6.482,5.143,12.643,10.325,17.825l3.864,3.864
			c5.796,6.762,14.491,9.66,23.185,9.66s17.389-3.864,24.151-10.626l73.419-73.419c14.491-14.491,14.491-37.675,0-52.166
			L490.713,366.094z M380.585,26.049c3.864-3.864,8.694-5.796,13.525-5.796c5.796,0,10.626,1.932,13.524,6.762l69.555,69.555
			c6.762,6.762,6.762,17.389,0,24.151l-0.966,0.966c-5.672,6.482-15.413,7.505-22.969,3.113l-75.882-75.882
			c-1.709-2.928-2.583-6.133-2.583-9.345C374.789,34.743,376.721,29.913,380.585,26.049z M319.725,73.385
			c-7.728-7.728-7.728-19.321,0-27.049c3.864-3.864,8.694-5.796,13.525-5.796s9.66,1.932,13.525,5.796l109.162,109.162
			c3.864,3.864,5.796,8.694,5.796,13.525s-1.932,9.66-5.796,13.525c-6.762,7.728-19.321,7.728-27.049,0l-13.525-13.525l0,0
			l-82.113-82.113l0,0L319.725,73.385z M332.283,114.925l55.064,55.064l-67.14,67.14l-55.064-55.064L332.283,114.925z
			 M26.049,93.672l67.623-68.589c3.864-3.864,8.694-5.796,13.525-5.796c5.796,0,10.626,1.932,14.491,5.796
			c7.205,7.205,7.686,17.766,1.456,25.426L49.29,123.709c-7.393,4.536-16.698,3.555-23.241-2.988
			C18.321,112.992,18.321,101.4,26.049,93.672z M73.385,181.581c-7.728,7.728-19.321,7.728-27.049,0
			c-7.728-7.728-7.728-19.321,0-27.049l16.561-16.561c1.59-1.124,3.157-2.361,4.692-3.726l68.589-68.589
			c1.798-1.798,3.378-3.718,4.758-5.724l14.563-14.563c3.864-3.864,8.694-5.796,13.525-5.796s9.66,1.932,13.525,5.796
			c3.864,3.864,5.796,8.694,5.796,13.525s-1.932,9.66-5.796,13.525l-13.525,13.525l-82.113,82.113L73.385,181.581z M141.491,141.008
			l27.532-27.049l68.741,68.437l-0.152,0.152l82.113,82.113l0.334-0.334l67.289,66.991l-55.064,55.064L114.32,168.418
			L141.491,141.008z M121.687,476.223l-2.898,2.898c-5.796,5.796-16.423,5.796-22.219,0L25.083,408.6
			c-6.762-7.728-6.762-19.321,0-26.083l0.966-0.966c3.864-3.864,8.694-5.796,13.525-5.796s9.66,0.966,13.525,4.83l68.589,68.589
			C129.415,456.902,129.415,468.494,121.687,476.223z M182.547,428.887c7.728,7.728,7.728,19.321,0,27.049
			c-7.728,7.728-19.321,7.728-27.049,0l-20.285-20.285c-0.001-0.001-0.001-0.002-0.002-0.002L66.623,367.06c0,0,0,0,0,0
			l-20.287-20.287c-3.864-3.864-5.796-8.694-5.796-13.525s1.932-9.66,5.796-13.525c3.864-3.864,8.694-5.796,13.525-5.796
			c4.83,0,9.66,1.932,13.524,5.796l13.525,13.525l82.113,82.113L182.547,428.887z M237.611,319.725l-68.589,68.589l-55.064-55.064
			l69.555-68.589l0.003,0.003L237.611,319.725z M319.725,454.97c-3.864-3.864-5.796-8.694-5.796-13.525s1.932-9.66,5.796-13.525
			l13.525-13.525v0l82.113-82.113v0l13.524-13.524c3.864-3.864,8.694-5.796,13.525-5.796s9.66,1.932,13.525,5.796
			c7.728,7.728,7.728,19.321,0,27.049l-20.286,20.286c0,0-0.001,0.001-0.001,0.001l-34.294,34.294l-54.581,54.581
			C340.011,462.698,327.453,462.698,319.725,454.97z M478.155,406.668l-73.419,73.419c-5.796,5.796-14.491,5.796-20.287,0
			l-3.864-3.864c-7.728-7.728-7.728-19.321,0-27.049l34.776-34.776l37.194-36.541c3.137-2.036,6.638-3.068,10.144-3.068
			c4.83,0,9.66,1.932,14.491,6.762l0.966,0.966C484.917,389.279,484.917,399.906,478.155,406.668z"/>
	</g>
</g>
<g>
</g>
<g>
</g>
<g>
</g>
<g>
</g>
<g>
</g>
<g>
</g>
<g>
</g>
<g>
</g>
<g>
</g>
<g>
</g>
<g>
</g>
<g>
</g>
<g>
</g>
<g>
</g>
<g>
</g>
</svg>
